<svg width="98px" height="18px" viewBox="0 0 98 18" version="1.1" xmlns="http://www.w3.org/2000/svg" xmlns:xlink="http://www.w3.org/1999/xlink">
    <!-- Generator: Sketch 44.1 (41455) - http://www.bohemiancoding.com/sketch -->
    <desc>Created with Sketch.</desc>
    <defs></defs>
    <g id="Symbols" stroke="none" stroke-width="1" fill="none" fill-rule="evenodd">
        <g id="Main-Nav---Switched" transform="translate(-82.000000, -20.000000)" fill="#FFFFFF">
            <g id="Group-34" transform="translate(82.000000, 20.000000)">
                <path d="M94.6458891,12.3612245 L94.6458891,12.5816327 L95.1705545,12.5816327 L95.1705545,13.8857143 L95.5078394,13.8857143 L95.5078394,12.5816327 L96.0325048,12.5816327 L96.0325048,12.3612245 L94.6458891,12.3612245 Z M97.5315488,12.3612245 L97.1005736,13.444898 L96.6321224,12.3612245 L96.1824092,12.3612245 L96.1824092,13.8857143 L96.482218,13.8857143 L96.482218,12.6183673 L97.0068834,13.8857143 L97.1755258,13.8857143 L97.6814532,12.6183673 L97.6814532,13.8857143 L97.981262,13.8857143 L97.981262,12.3612245 L97.5315488,12.3612245 Z" id="Shape"></path>
                <path d="M93.7464627,13.9591837 L93.7464627,11.9387755 L93.0344168,11.9387755 C92.2474187,11.9387755 92.0787763,11.8285714 92.0787763,11.2959184 L92.0787763,5.69387755 L93.7652008,5.69387755 L93.7652008,3.78367347 L92.0787763,3.78367347 L92.0787763,1.02857143 L89.1931166,1.02857143 L89.1931166,3.78367347 L87.7502868,3.78367347 L87.7502868,5.69387755 L89.1931166,5.69387755 L89.1931166,11.1489796 C89.1931166,13.2612245 89.699044,14.0142857 92.0975143,14.0142857 C92.3785851,14.0326531 92.9407266,13.9959184 93.7464627,13.9591837" id="Shape"></path>
                <path d="M77.1632887,13.8857143 L80.0676864,13.8857143 L80.0676864,7.89795918 C80.0676864,6.5755102 80.9483748,5.76734694 82.2975143,5.76734694 C83.5529637,5.76734694 83.9839388,6.41020408 83.9839388,7.7877551 L83.9839388,13.8857143 L86.8883365,13.8857143 L86.8883365,6.99795918 C86.8883365,4.68367347 85.7078394,3.52653061 83.290631,3.52653061 C81.9227533,3.52653061 80.8172084,4.02244898 79.9927342,4.99591837 L79.9927342,3.80204082 L77.1445507,3.80204082 L77.1445507,13.8857143 L77.1632887,13.8857143 Z" id="Shape"></path>
                <rect id="Rectangle-path" x="72.4600382" y="0.220408163" width="2.90439771" height="2.46122449"></rect>
                <rect id="Rectangle-path" x="72.4600382" y="3.80204082" width="2.90439771" height="10.1020408"></rect>
                <path d="M63.2596558,8.83469388 C63.2596558,6.81428571 64.1965583,5.7122449 65.8267686,5.7122449 C67.4382409,5.7122449 68.3751434,6.81428571 68.3751434,8.83469388 C68.3751434,10.855102 67.456979,11.9755102 65.8267686,11.9755102 C64.1965583,11.9755102 63.2596558,10.855102 63.2596558,8.83469388 M60.299044,8.83469388 C60.299044,12.1959184 62.3977055,14.2346939 65.8080306,14.2346939 C69.2370937,14.2346939 71.3170172,12.1959184 71.3170172,8.83469388 C71.3170172,5.47346939 69.2183556,3.43469388 65.8080306,3.43469388 C62.3977055,3.43469388 60.299044,5.47346939 60.299044,8.83469388" id="Shape"></path>
                <path d="M56.4764818,8.90816327 C56.4764818,10.8 55.5583174,11.9020408 54.1154876,11.9020408 C52.5789675,11.9020408 51.6795411,10.8367347 51.6795411,8.90816327 C51.6795411,6.83265306 52.5227533,5.76734694 54.0592734,5.76734694 C55.6145315,5.76734694 56.4764818,6.85102041 56.4764818,8.90816327 L56.4764818,8.90816327 Z M48.8500956,17.944898 L51.6795411,17.944898 L51.6795411,12.6367347 C52.391587,13.6836735 53.4971319,14.2346939 54.9024857,14.2346939 C57.4508604,14.2346939 59.3808795,12.122449 59.3808795,8.79795918 C59.3808795,5.56530612 57.5070746,3.45306122 54.8650096,3.45306122 C53.4409178,3.45306122 52.4665392,3.98571429 51.623327,5.16122449 L51.623327,3.78367347 L48.8500956,3.78367347 L48.8500956,17.944898 L48.8500956,17.944898 Z" id="Shape"></path>
                <path d="M42.9288719,13.8857143 L45.7770554,13.8857143 L45.7770554,5.69387755 L47.5759082,5.69387755 L47.5759082,3.78367347 L45.7583174,3.78367347 L45.7583174,3.08571429 C45.7583174,2.44285714 46.0206501,2.33265306 46.8263862,2.33265306 L47.5946463,2.33265306 L47.5946463,0.183673469 C47.0887189,0.146938776 46.6390057,0.128571429 46.2080306,0.128571429 C43.9782027,0.128571429 42.9476099,0.973469388 42.9476099,2.86530612 L42.9476099,3.80204082 L41.3923518,3.80204082 L41.3923518,5.69387755 L42.9476099,5.69387755 L42.9476099,13.8857143 L42.9288719,13.8857143 Z" id="Shape"></path>
                <path d="M33.1101338,8.83469388 C33.1101338,6.81428571 34.0470363,5.7122449 35.6772467,5.7122449 C37.2887189,5.7122449 38.2256214,6.81428571 38.2256214,8.83469388 C38.2256214,10.855102 37.307457,11.9755102 35.6772467,11.9755102 C34.0470363,11.9755102 33.1101338,10.855102 33.1101338,8.83469388 M30.149522,8.83469388 C30.149522,12.1959184 32.2481836,14.2346939 35.6585086,14.2346939 C39.0688337,14.2346939 41.1674952,12.1959184 41.1674952,8.83469388 C41.1674952,5.47346939 39.0688337,3.43469388 35.6585086,3.43469388 C32.2481836,3.43469388 30.149522,5.47346939 30.149522,8.83469388" id="Shape"></path>
                <path d="M21.4175908,8.83469388 C21.4175908,6.81428571 22.3544933,5.7122449 23.9847036,5.7122449 C25.5961759,5.7122449 26.5330784,6.81428571 26.5330784,8.83469388 C26.5330784,10.855102 25.614914,11.9755102 23.9847036,11.9755102 C22.3544933,11.9755102 21.4175908,10.855102 21.4175908,8.83469388 M18.456979,8.83469388 C18.456979,12.1959184 20.5556405,14.2346939 23.9659656,14.2346939 C27.3762906,14.2346939 29.4749522,12.1959184 29.4749522,8.83469388 C29.4749522,5.47346939 27.3762906,3.43469388 23.9659656,3.43469388 C20.5556405,3.43469388 18.456979,5.47346939 18.456979,8.83469388" id="Shape"></path>
                <path d="M11.8611855,13.8857143 L14.7655832,13.8857143 L14.7655832,8.54081633 C14.7655832,7.01632653 15.5900574,6.26326531 17.1640535,6.26326531 L18.1196941,6.26326531 L18.1196941,3.52653061 C17.9697897,3.50816327 17.8386233,3.50816327 17.6887189,3.50816327 C16.3021033,3.50816327 15.3089866,4.13265306 14.5594646,5.52857143 L14.5594646,3.80204082 L11.8611855,3.80204082 L11.8611855,13.8857143 Z" id="Shape"></path>
                <path d="M7.79502868,8.90816327 C7.79502868,10.8 6.87686424,11.9020408 5.43403442,11.9020408 C3.89751434,11.9020408 2.99808795,10.8367347 2.99808795,8.90816327 C2.99808795,6.83265306 3.84130019,5.76734694 5.37782027,5.76734694 C6.93307839,5.76734694 7.79502868,6.85102041 7.79502868,8.90816327 L7.79502868,8.90816327 Z M0.168642447,17.944898 L2.99808795,17.944898 L2.99808795,12.6367347 C3.71013384,13.6836735 4.81567878,14.2346939 6.2210325,14.2346939 C8.76940727,14.2346939 10.6994264,12.122449 10.6994264,8.79795918 C10.6994264,5.56530612 8.82562141,3.45306122 6.18355641,3.45306122 C4.75946463,3.45306122 3.78508604,3.98571429 2.9418738,5.16122449 L2.9418738,3.78367347 L0.168642447,3.78367347 L0.168642447,17.944898 L0.168642447,17.944898 Z" id="Shape"></path>
            </g>
        </g>
    </g>
</svg>
