<svg xmlns="http://www.w3.org/2000/svg" style="enable-background:new 0 0 212.1 85" xml:space="preserve" viewBox="21.03 30.83 170.03 23.5"><style>.st2{fill:#282828}.st3{fill:#e63c41}</style><g id="Layer_2"><path class="st2" d="M79.4 39.1c0 3.8-1.1 5.2-4.3 5.6l4.7 6.6c.2.3.1.5-.3.5h-2.6c-.6 0-.8-.2-1.1-.5L71.3 45H68v6.5c0 .3-.1.4-.4.4h-2.7c-.3 0-.4-.1-.4-.4V33.6c0-.3.1-.3.4-.3 2.2-.1 4.6-.2 6.5-.2 6 0 8 1.1 8 6zM68 36.3v5.6h3c3.9 0 4.9-.3 4.9-2.7 0-2.5-1-2.9-4.9-2.9h-3zM98.8 42.6c0 7.3-1.7 9.4-8.5 9.4s-8.5-2.2-8.5-9.4c0-7.3 1.8-9.5 8.5-9.5s8.5 2.1 8.5 9.5zm-13.5-.2c0 4.7.8 6.1 5 6.1s5-1.4 5-6.1c0-4.8-.8-6.2-5-6.2-4.3 0-5 1.4-5 6.2zM115 33.2c.3 0 .4.1.4.4V36c0 .2-.2.4-.4.4h-9.7v4.8h8.9c.3 0 .4.1.4.4V44c0 .2-.1.4-.4.4h-8.9v7.2c0 .2-.1.4-.4.4h-2.7c-.3 0-.4-.1-.4-.4v-18c0-.2.1-.4.4-.4H115zM121.2 33.2c.3 0 .4.1.4.4v17.9c0 .3-.1.4-.4.4h-2.7c-.3 0-.4-.1-.4-.4v-18c0-.2.1-.4.4-.4h2.7zM141.2 33.2c.3 0 .4.1.4.4v17.9c0 .3-.1.4-.4.4h-2.1c-.5 0-.8-.1-1.1-.5l-9.8-12.8v13c0 .3-.1.4-.4.4h-2.7c-.3 0-.4-.1-.4-.4V33.5c0-.2.1-.4.4-.4h2.3c1 0 1.2.2 1.6.8l9.2 11.9V33.5c0-.2.1-.4.4-.4h2.6zM147.7 33.2c.3 0 .4.1.4.4v17.9c0 .3-.1.4-.4.4H145c-.3 0-.4-.1-.4-.4v-18c0-.2.1-.4.4-.4h2.7zM166.5 33.2c.3 0 .4.1.4.4V36c0 .2-.1.4-.4.4h-5.9v15.1c0 .2-.1.4-.4.4h-2.7c-.3 0-.4-.1-.4-.4V36.4h-5.9c-.3 0-.4-.1-.4-.4v-2.5c0-.2.1-.4.4-.4h15.3zM62.2 39.1c0 5.1-2 5.9-8.1 5.9h-3.4v6.5c0 .3-.1.4-.4.4h-2.7c-.3 0-.4-.1-.4-.4V33.6c0-.3.1-.3.4-.3 2.2-.1 4.6-.2 6.5-.2 6 0 8.1 1.1 8.1 6zm-11.5-2.8v5.6h3.1c3.9 0 4.9-.3 4.9-2.7 0-2.5-1-2.9-4.9-2.9h-3.1z"></path><path class="st3" d="m30.9 54.3-9.7-6.7c-.2-.1-.2-.3-.1-.5l9.6-15.7c.1-.2.3-.2.5-.1l1.7 1c.2.1.2.3.1.5L25.9 46c-.1.2 0 .4.1.5l6.6 5.5c.2.1.2.4.1.5l-1.2 1.6c-.2.2-.4.3-.6.2zM180.9 53.9l-1.7-1c-.2-.1-.2-.3-.1-.5l7.2-13.3c.1-.2 0-.4-.1-.5l-6.6-5.5c-.2-.1-.2-.4-.1-.5l1.2-1.6c.1-.2.4-.2.5-.1l9.7 6.7c.2.1.2.3.1.5l-9.6 15.7c-.1.1-.3.2-.5.1z"></path></g></svg>